<svg width="24" height="24" viewBox="0 0 24 24" fill="none" xmlns="http://www.w3.org/2000/svg">
<path d="M22.0876 20.1788L21.3292 17.5238C21.8662 16.4854 22.1394 15.3308 22.1248 14.1619C22.1102 12.993 21.8082 11.8456 21.2455 10.8209C20.6827 9.79629 19.8764 8.92585 18.8978 8.28638C17.9192 7.64691 16.7983 7.25806 15.6339 7.15412C15.2822 6.2527 14.7506 5.43235 14.0715 4.7431C13.3924 4.05384 12.5801 3.51013 11.684 3.1451C10.7879 2.78008 9.82684 2.6014 8.85943 2.61996C7.89202 2.63852 6.93852 2.85393 6.05709 3.25305C5.17565 3.65218 4.38475 4.22665 3.7326 4.94144C3.08045 5.65624 2.58072 6.49637 2.26389 7.41062C1.94706 8.32486 1.81976 9.29406 1.88976 10.2591C1.95977 11.2242 2.2256 12.1649 2.67105 13.0238L1.91261 15.6788C1.87256 15.8183 1.86543 15.9652 1.8918 16.1079C1.91816 16.2506 1.9773 16.3852 2.06454 16.5012C2.15179 16.6172 2.26477 16.7113 2.39458 16.7762C2.52439 16.841 2.66749 16.8749 2.81261 16.8751C2.90144 16.875 2.98981 16.8623 3.07511 16.8376L5.73011 16.0791C6.55112 16.5034 7.44682 16.7638 8.3673 16.846C8.73095 17.776 9.286 18.6191 9.99647 19.3207C10.7069 20.0224 11.5569 20.5668 12.4914 20.9188C13.4258 21.2708 14.4238 21.4225 15.4206 21.364C16.4174 21.3054 17.3908 21.038 18.2776 20.5791L20.9326 21.3376C21.0179 21.3623 21.1063 21.375 21.1951 21.3751C21.3399 21.3743 21.4826 21.34 21.6119 21.2749C21.7412 21.2098 21.8537 21.1156 21.9406 20.9997C22.0274 20.8838 22.0862 20.7494 22.1124 20.607C22.1385 20.4645 22.1313 20.318 22.0914 20.1788H22.0876ZM5.76855 15.3038C5.73362 15.3037 5.69886 15.3087 5.66542 15.3188L2.86511 16.1185C2.833 16.1276 2.79904 16.128 2.76673 16.1196C2.73443 16.1112 2.70495 16.0943 2.68135 16.0707C2.65774 16.0471 2.64087 16.0176 2.63247 15.9853C2.62406 15.953 2.62444 15.919 2.63355 15.8869L3.43324 13.0866C3.46005 12.9924 3.44894 12.8915 3.4023 12.8054C2.6685 11.4592 2.44443 9.89368 2.77114 8.39573C3.09785 6.89777 3.95346 5.56773 5.18116 4.64938C6.40886 3.73103 7.9264 3.28588 9.45565 3.39553C10.9849 3.50519 12.4234 4.16229 13.5075 5.2464C14.5916 6.33052 15.2487 7.76903 15.3584 9.29827C15.468 10.8275 15.0229 12.3451 14.1045 13.5728C13.1862 14.8005 11.8562 15.6561 10.3582 15.9828C8.86024 16.3095 7.29471 16.0854 5.94855 15.3516C5.8937 15.3201 5.83178 15.3031 5.76855 15.3019V15.3038ZM21.3189 20.5688C21.2949 20.5931 21.2648 20.6103 21.2318 20.6188C21.1987 20.6272 21.164 20.6265 21.1314 20.6166L18.3311 19.8169C18.2369 19.7901 18.1359 19.8012 18.0498 19.8479C17.2795 20.268 16.4307 20.5245 15.5566 20.6015C14.6825 20.6784 13.802 20.5741 12.9701 20.2951C12.1382 20.016 11.3729 19.5682 10.722 18.9797C10.0711 18.3912 9.54878 17.6747 9.18761 16.8751C10.2613 16.8467 11.3146 16.576 12.2689 16.0831C13.2232 15.5903 14.0537 14.8881 14.6983 14.0291C15.343 13.17 15.7851 12.1764 15.9916 11.1224C16.198 10.0684 16.1636 8.98135 15.8907 7.94256C16.9108 8.08642 17.8809 8.47535 18.7178 9.07606C19.5547 9.67677 20.2336 10.4714 20.6963 11.3918C21.159 12.3122 21.3918 13.3311 21.3747 14.3612C21.3575 15.3912 21.091 16.4018 20.5979 17.3063C20.5513 17.3924 20.5402 17.4934 20.567 17.5876L21.3667 20.3879C21.3753 20.4196 21.3753 20.453 21.367 20.4847C21.3586 20.5165 21.342 20.5455 21.3189 20.5688Z" fill="white" fill-opacity="0.3"/>
</svg>
