<svg width="26" height="26" viewBox="0 0 26 26" fill="none" xmlns="http://www.w3.org/2000/svg">
<path d="M11.7333 2.1333H9.59997C4.26663 2.1333 2.1333 4.26663 2.1333 9.59997V16C2.1333 21.3333 4.26663 23.4666 9.59997 23.4666H16C21.3333 23.4666 23.4666 21.3333 23.4666 16V13.8666" stroke="white" stroke-width="1.5" stroke-linecap="round" stroke-linejoin="round"/>
<path d="M17.1095 3.22133L8.70416 11.6267C8.38416 11.9467 8.06416 12.576 8.00016 13.0347L7.5415 16.2453C7.37083 17.408 8.19216 18.2187 9.35483 18.0587L12.5655 17.6C13.0135 17.536 13.6428 17.216 13.9735 16.896L22.3788 8.49067C23.8295 7.04 24.5122 5.35467 22.3788 3.22133C20.2455 1.088 18.5602 1.77067 17.1095 3.22133V3.22133Z" stroke="white" stroke-width="1.5" stroke-miterlimit="10" stroke-linecap="round" stroke-linejoin="round"/>
<path d="M15.9038 4.42664C16.2575 5.6826 16.9278 6.82671 17.8504 7.74935C18.7731 8.672 19.9172 9.34227 21.1731 9.69597" stroke="white" stroke-width="1.5" stroke-miterlimit="10" stroke-linecap="round" stroke-linejoin="round"/>
</svg>
