<svg width="60" height="60" viewBox="0 0 60 60" fill="none" xmlns="http://www.w3.org/2000/svg">
<path d="M56.5499 23.4348C36.5363 20.6856 19.278 35.5459 20.4376 55.2568M12.8682 17.4096C12.8682 19.0156 13.5062 20.5558 14.6418 21.6915C15.7774 22.8271 17.3177 23.4651 18.9237 23.4651C20.5298 23.4651 22.07 22.8271 23.2056 21.6915C24.3413 20.5558 24.9793 19.0156 24.9793 17.4096C24.9793 15.8035 24.3413 14.2633 23.2056 13.1276C22.07 11.992 20.5298 11.354 18.9237 11.354C17.3177 11.354 15.7774 11.992 14.6418 13.1276C13.5062 14.2633 12.8682 15.8035 12.8682 17.4096Z" stroke="white" stroke-width="4.54167" stroke-linecap="round" stroke-linejoin="round"/>
<path d="M2.271 32.7484C10.6882 31.5827 18.2425 35.649 22.327 42.1345" stroke="white" stroke-width="4.54167" stroke-linecap="round" stroke-linejoin="round"/>
<path d="M2.271 21.6485C2.271 14.8663 2.271 11.4752 3.59111 8.88342C4.75222 6.60467 6.60491 4.75198 8.88366 3.59086C11.4754 2.27075 14.8666 2.27075 21.6488 2.27075H37.3932C44.1754 2.27075 47.5665 2.27075 50.1583 3.59086C52.4371 4.75198 54.2898 6.60467 55.4509 8.88342C56.771 11.4752 56.771 14.8663 56.771 21.6485V37.393C56.771 44.1752 56.771 47.5663 55.4509 50.1581C54.2898 52.4368 52.4371 54.2895 50.1583 55.4506C47.5665 56.7707 44.1754 56.7708 37.3932 56.7708H21.6488C14.8666 56.7708 11.4754 56.7707 8.88366 55.4506C6.60491 54.2895 4.75222 52.4368 3.59111 50.1581C2.271 47.5663 2.271 44.1752 2.271 37.393V21.6485Z" stroke="white" stroke-width="4.54167" stroke-linecap="round" stroke-linejoin="round"/>
</svg>
