<svg width="24" height="24" viewBox="0 0 24 24" fill="none" xmlns="http://www.w3.org/2000/svg">
<path d="M10 11V8C10 7.73478 9.89464 7.48043 9.70711 7.29289C9.51957 7.10536 9.26522 7 9 7H6C5.73478 7 5.48043 7.10536 5.29289 7.29289C5.10536 7.48043 5 7.73478 5 8V11C5 11.2652 5.10536 11.5196 5.29289 11.7071C5.48043 11.8946 5.73478 12 6 12H9C9.26522 12 9.51957 11.8946 9.70711 11.7071C9.89464 11.5196 10 11.2652 10 11ZM10 11V13C10 14.0609 9.57857 15.0783 8.82843 15.8284C8.07828 16.5786 7.06087 17 6 17H5M19 11V8C19 7.73478 18.8946 7.48043 18.7071 7.29289C18.5196 7.10536 18.2652 7 18 7H15C14.7348 7 14.4804 7.10536 14.2929 7.29289C14.1054 7.48043 14 7.73478 14 8V11C14 11.2652 14.1054 11.5196 14.2929 11.7071C14.4804 11.8946 14.7348 12 15 12H18C18.2652 12 18.5196 11.8946 18.7071 11.7071C18.8946 11.5196 19 11.2652 19 11ZM19 11V13C19 14.0609 18.5786 15.0783 17.8284 15.8284C17.0783 16.5786 16.0609 17 15 17H14" stroke="white" stroke-opacity="0.3" stroke-width="2" stroke-linecap="round" stroke-linejoin="round"/>
</svg>
