<svg width="24" height="30" viewBox="0 0 24 30" fill="none" xmlns="http://www.w3.org/2000/svg">
<path d="M11.917 7.24707C14.9112 7.24719 17.457 8.38304 19.5537 10.6543C21.6504 12.9256 22.6991 15.6811 22.6992 18.9199C22.6992 20.115 22.3193 21.1265 21.5605 21.9531C20.8018 22.7797 19.8838 23.1924 18.8066 23.1914C17.7074 23.1914 16.7722 22.7787 16.002 21.9531C15.2317 21.1275 14.8477 20.116 14.8486 18.9199C14.8485 18.0563 14.5697 17.3199 14.0127 16.7119C13.4565 16.1049 12.7742 15.8018 11.9668 15.8018C11.1418 15.8018 10.447 16.105 9.88281 16.7119C9.31781 17.3199 9.03526 18.0563 9.03516 18.9199C9.03516 21.3111 9.67432 23.3654 10.9521 25.082C12.2291 26.7987 14.069 28.0625 16.4717 28.873L16.1924 29.998C13.6136 29.1976 11.6061 27.8315 10.1699 25.9004C8.73375 23.9693 8.01465 21.6424 8.01465 18.9199C8.01475 17.725 8.40072 16.7133 9.1709 15.8848C9.94112 15.0543 10.873 14.6387 11.9668 14.6387C13.0429 14.6387 13.9623 15.0534 14.7246 15.8828C15.4859 16.7123 15.8671 17.725 15.8672 18.9199C15.8672 19.7837 16.1511 20.5198 16.7188 21.1279C17.2856 21.7351 17.9815 22.0391 18.8066 22.0391C19.6088 22.0391 20.2875 21.7351 20.8438 21.1279C21.4009 20.5198 21.6797 19.7838 21.6797 18.9199C21.6796 15.9922 20.7333 13.5066 18.8408 11.4639C16.9501 9.42221 14.6439 8.40137 11.9229 8.40137C9.23637 8.40145 6.94722 9.4222 5.05566 11.4639C3.16493 13.5077 2.21977 15.9904 2.21973 18.9111C2.21973 19.7347 2.3024 20.6264 2.46777 21.585C2.63314 22.5433 2.90366 23.6556 3.28027 24.9219L2.36621 25.3906C1.96825 24.1945 1.67451 23.0615 1.48438 21.9922C1.29425 20.925 1.19922 19.9006 1.19922 18.9199C1.19932 15.6811 2.24066 12.9256 4.32324 10.6543C6.4059 8.38296 8.93763 7.24707 11.917 7.24707ZM12.3633 10.9492C14.3272 11.0438 15.9556 11.8474 17.248 13.3594C18.6267 14.9722 19.3153 17.0202 19.3145 19.5029H18.2949C18.2948 17.3455 17.7027 15.5729 16.5195 14.1846C15.3354 12.7972 13.8176 12.1036 11.9658 12.1035C10.2122 12.1035 8.7216 12.7706 7.49414 14.1055C6.26576 15.4405 5.65138 17.0461 5.65137 18.9219C5.65137 20.8409 5.94617 22.534 6.53516 24.001C7.12326 25.4669 8.18219 27.1187 9.71289 28.9561L8.98926 29.7803C7.41513 27.8744 6.29501 26.0974 5.63086 24.4482C4.9667 22.799 4.63458 20.9558 4.63281 18.9199C4.63291 16.693 5.34378 14.8062 6.7666 13.2598C8.18952 11.7133 9.92308 10.9395 11.9668 10.9385L12.3633 10.9492ZM12.4189 18.3389C12.4189 19.4917 12.5743 20.5142 12.8838 21.4062C13.1933 22.2982 13.6524 23.0656 14.2607 23.709C14.8356 24.3071 15.4908 24.7686 16.2266 25.0928C16.9623 25.4169 17.7337 25.58 18.541 25.5811C18.8656 25.5811 19.1838 25.5506 19.4951 25.4912C19.8064 25.4318 20.1198 25.3655 20.4346 25.292L20.6396 26.3301C20.2984 26.4539 19.954 26.5534 19.6074 26.6289C19.2609 26.7044 18.9052 26.7422 18.541 26.7422C17.6019 26.7421 16.6998 26.5514 15.835 26.1709C14.9702 25.7903 14.2037 25.2356 13.5361 24.5059C12.8286 23.7507 12.2956 22.859 11.9365 21.832C11.5775 20.8051 11.3975 19.6407 11.3975 18.3389H12.4189ZM11.917 3.69824C14.3807 3.69832 16.6364 4.30446 18.6836 5.51562C20.7307 6.72686 22.5029 8.50207 24 10.8408L23.1182 11.5137C21.7757 9.33796 20.1571 7.68532 18.2637 6.55566C16.3705 5.42621 14.2549 4.86046 11.917 4.85938C9.65133 4.85938 7.58095 5.42137 5.70703 6.54492C3.83305 7.66856 2.19084 9.34048 0.780273 11.5596L0 10.8662C1.5184 8.54049 3.29159 6.76442 5.31934 5.53809C7.34719 4.31175 9.54688 3.69824 11.917 3.69824ZM12.498 0.0078125C13.7325 0.0518809 14.9383 0.250168 16.1152 0.602539C17.4603 1.00528 18.8843 1.64919 20.3867 2.53516L19.957 3.61426C18.619 2.75343 17.3099 2.12885 16.0303 1.74121C14.7506 1.35357 13.3959 1.15918 11.9668 1.15918C10.627 1.15919 9.32524 1.35637 8.06152 1.74902C6.79792 2.14166 5.44889 2.7599 4.01465 3.60449L3.67188 2.57324C5.01169 1.70031 6.35892 1.05273 7.71289 0.630859C9.06679 0.20904 10.4846 -0.00100679 11.9658 0L12.498 0.0078125Z" fill="#284243"/>
</svg>
